<?xml version="1.0" encoding="UTF-8"?>
<!DOCTYPE svg PUBLIC "-//W3C//DTD SVG 1.1//EN" "http://www.w3.org/Graphics/SVG/1.1/DTD/svg11.dtd">
<svg xmlns="http://www.w3.org/2000/svg" version="1.1" width="100px" height="100px" style="shape-rendering:geometricPrecision; text-rendering:geometricPrecision; image-rendering:optimizeQuality; fill-rule:evenodd; clip-rule:evenodd" xmlns:xlink="http://www.w3.org/1999/xlink">
<g><path style="opacity:0.956" fill="#ff9023" d="M 52.5,11.5 C 58.3907,10.4296 61.724,12.7629 62.5,18.5C 58.3975,39.5123 54.2309,60.5123 50,81.5C 48.0468,87.5324 44.2134,89.0324 38.5,86C 37.1524,84.4259 36.4858,82.5925 36.5,80.5C 40.6025,59.4877 44.7691,38.4877 49,17.5C 49.5637,15.1133 50.7304,13.1133 52.5,11.5 Z"/></g>
<g><path style="opacity:0.345" fill="#ff8d24" d="M -0.5,53.5 C -0.5,50.8333 -0.5,48.1667 -0.5,45.5C 4.60098,38.8229 9.60098,31.9896 14.5,25C 22.6667,23.1667 25.8333,26.3333 24,34.5C 20.8333,39.5 17.6667,44.5 14.5,49.5C 17.6667,54.5 20.8333,59.5 24,64.5C 25.8333,72.6667 22.6667,75.8333 14.5,74C 9.60098,67.0104 4.60098,60.1771 -0.5,53.5 Z"/></g>
<g><path style="opacity:0.346" fill="#ff8d24" d="M 99.5,45.5 C 99.5,48.1667 99.5,50.8333 99.5,53.5C 94.399,60.1771 89.399,67.0104 84.5,74C 75.0455,75.2862 72.2122,71.4528 76,62.5C 79.03,58.3017 81.8633,53.9684 84.5,49.5C 81.3333,44.5 78.1667,39.5 75,34.5C 73.1667,26.3333 76.3333,23.1667 84.5,25C 89.399,31.9896 94.399,38.8229 99.5,45.5 Z"/></g>
</svg>
