<svg xmlns="http://www.w3.org/2000/svg" xmlns:xlink="http://www.w3.org/1999/xlink" viewBox="0,0,256,256" width="100px" height="100px" fill-rule="nonzero"><defs><linearGradient x1="18.208" y1="2.413" x2="34.159" y2="46.236" gradientUnits="userSpaceOnUse" id="color-1"><stop offset="0" stop-color="#ffa44c"></stop><stop offset="1" stop-color="#ff9732"></stop></linearGradient></defs><g fill="none" fill-rule="nonzero" stroke="none" stroke-width="1" stroke-linecap="butt" stroke-linejoin="miter" stroke-miterlimit="10" stroke-dasharray="" stroke-dashoffset="0" font-family="none" font-weight="none" font-size="none" text-anchor="none" style="mix-blend-mode: normal"><g transform="scale(5.33333,5.33333)"><path d="M7.192,7.176l2.627,29.77c0.109,1.237 0.97,2.28 2.164,2.621l10.643,3.041c0.898,0.257 1.849,0.257 2.747,0l10.643,-3.041c1.194,-0.341 2.055,-1.383 2.164,-2.621l2.627,-29.77c0.104,-1.17 -0.817,-2.176 -1.991,-2.176h-29.632c-1.174,0 -2.095,1.006 -1.992,2.176z" fill="url(#color-1)"></path><path d="M24,8v31.9l9.876,-2.822c0.797,-0.228 1.371,-0.924 1.443,-1.749l2.286,-26.242c0.051,-0.585 -0.409,-1.087 -0.996,-1.087z" fill="#ffb267"></path><path d="M24,25v-4h8.6l-0.7,11.5l-7.9,2.6v-4.2l4.1,-1.4l0.3,-4.5zM32.9,17l0.3,-4h-9.2v4z" fill="#d7d7d7"></path><path d="M24,30.9v4.2l-7.9,-2.6l-0.4,-5.5h4l0.2,2.5zM19.1,17h4.9v-4h-9.1l0.7,12h8.4v-4h-4.6z" fill="#b5b5b5"></path><path d="M33.2,13l-0.3,4h-8.9h-4.9l0.3,4h4.6h8.6l-0.7,11.5l-7.9,2.6l-7.9,-2.6l-0.4,-5.5h4l0.2,2.5l4.1,1.4l4.1,-1.4l0.3,-4.5h-4.4h-8.4l-0.7,-12h9.1h9.2M34.278,12h-1.078h-9.2h-9.1h-1.06l0.062,1.058l0.7,12l0.055,0.942h-0.032l0.078,1.073l0.4,5.5l0.049,0.668l0.636,0.209l7.9,2.6l0.312,0.103l0.313,-0.103l7.9,-2.6l0.644,-0.212l0.041,-0.677l0.7,-11.5l0.065,-1.061h-1.063h-8.6h-3.672l-0.15,-2h3.822h8.9h0.928l0.069,-0.925l0.3,-4l0.081,-1.075zM20.623,26h3.377h3.331l-0.185,2.769l-3.146,1.074l-3.156,-1.077l-0.148,-1.846l-0.073,-0.92z" fill="#656469" opacity="0.05"></path><path d="M33.2,13l-0.3,4h-8.9h-4.9l0.3,4h4.6h8.6l-0.7,11.5l-7.9,2.6l-7.9,-2.6l-0.4,-5.5h4l0.2,2.5l4.1,1.4l4.1,-1.4l0.3,-4.5h-4.4h-8.4l-0.7,-12h9.1h9.2M33.739,12.5h-0.539h-9.2h-9.1h-0.53l0.031,0.529l0.7,12l0.027,0.471h0.472h8.4h3.866l-0.242,3.634l-3.624,1.238l-3.628,-1.239l-0.174,-2.173l-0.037,-0.46h-0.461h-4h-0.538l0.039,0.536l0.4,5.5l0.024,0.334l0.318,0.105l7.9,2.6l0.157,0.051l0.156,-0.051l7.9,-2.6l0.322,-0.106l0.021,-0.339l0.7,-11.5l0.032,-0.53h-0.531h-8.6h-4.136l-0.225,-3h4.361h8.9h0.464l0.035,-0.463l0.3,-4l0.04,-0.537z" fill="#656469" opacity="0.07"></path></g></g></svg>