<svg xmlns="http://www.w3.org/2000/svg" xmlns:xlink="http://www.w3.org/1999/xlink" viewBox="0,0,256,256" width="100px" height="100px" fill-rule="nonzero"><g fill="none" fill-rule="nonzero" stroke="none" stroke-width="1" stroke-linecap="butt" stroke-linejoin="miter" stroke-miterlimit="10" stroke-dasharray="" stroke-dashoffset="0" font-family="none" font-weight="none" font-size="none" text-anchor="none" style="mix-blend-mode: normal"><g transform="scale(5.33333,5.33333)"><path d="M24,6l-6.01,6.35l-6.02,6.34l-5.97,6.31v-19z" fill="#656469"></path><path d="M24,6h-0.04l-5.99,6.33l-6.01,6.35l-5.96,6.29v0.03v0.09v16.91l8.69,-8.69l6.18,-6.18l6.19,-6.19l6.19,-6.19l8.75,-8.75z" fill="#f88909"></path><path d="M14.69,33.31l-8.69,8.69v-16.91z" fill="#f9a553"></path><path d="M20.87,27.13l-6.18,6.18l-8.69,-8.22v-0.09l5.97,-6.31z" fill="#fc8f24"></path><path d="M27.06,20.94l-6.19,6.19l-8.9,-8.44l6.02,-6.34z" fill="#ff7e00"></path><path d="M33.25,14.75l-6.19,6.19l-9.07,-8.59l6.01,-6.35z" fill="#ff9024"></path><path d="M42,6l-8.75,8.75l-9.25,-8.75z" fill="#f88909"></path><path d="M11.51,19.15l-3.52,3.73l-1.99,-1.88v-7.06z" fill="#656469"></path><path d="M15.03,15.42l-3.52,3.73l-5.51,-5.21v-7.07z" fill="#7b7b7b"></path><path d="M18.56,11.7l-3.53,3.72l-9.03,-8.55v-0.87h6.53z" fill="#8d8d8d"></path><path d="M22.08,7.97l-3.52,3.73l-6.03,-5.7h11.47z" fill="#bdbdbd"></path><path d="M23,25l-17,17h3.35h8.17h22.48z" fill="#656469"></path><path d="M25.68,42h-8.16l-5.76,-5.75l4.08,-4.08z" fill="#7b7b7b"></path><path d="M33.86,42h-8.18l-9.84,-9.83l4.08,-4.08z" fill="#8d8d8d"></path><path d="M42,42h-8.14l-13.94,-13.91l4.08,-4.09z" fill="#bdbdbd"></path></g></g></svg>