<?xml version="1.0" encoding="UTF-8"?>
<!DOCTYPE svg PUBLIC "-//W3C//DTD SVG 1.1//EN" "http://www.w3.org/Graphics/SVG/1.1/DTD/svg11.dtd">
<svg xmlns="http://www.w3.org/2000/svg" version="1.1" width="100px" height="100px" style="shape-rendering:geometricPrecision; text-rendering:geometricPrecision; image-rendering:optimizeQuality; fill-rule:evenodd; clip-rule:evenodd" xmlns:xlink="http://www.w3.org/1999/xlink">
<g><path style="opacity:0.907" fill="#67666b" d="M 99.5,43.5 C 99.5,47.8333 99.5,52.1667 99.5,56.5C 91.3515,69.7542 79.3515,77.2542 63.5,79C 43.6587,82.4984 25.3254,78.8318 8.5,68C 4.87657,64.5505 1.87657,60.7172 -0.5,56.5C -0.5,52.1667 -0.5,47.8333 -0.5,43.5C 6.74814,30.7905 17.7481,23.2905 32.5,21C 52.3826,16.8697 71.0493,19.8697 88.5,30C 93.1671,33.819 96.8337,38.319 99.5,43.5 Z"/></g>
<g><path style="opacity:1" fill="#d7d7d7" d="M 42.5,22.5 C 58.1668,22.0518 72.8334,25.5518 86.5,33C 100.714,46.6258 99.381,58.6258 82.5,69C 65.0976,76.8829 47.0976,78.5496 28.5,74C 19.0306,71.1906 11.1973,66.024 5,58.5C 0.596635,48.1018 3.09663,39.6018 12.5,33C 21.8717,27.3777 31.8717,23.8777 42.5,22.5 Z"/></g>
<g><path style="opacity:1" fill="#6c6b70" d="M 41.5,29.5 C 39.8413,31.3427 37.6746,32.3427 35,32.5C 33.6244,32.3158 32.7911,31.6491 32.5,30.5C 33.9461,29.0598 35.7794,28.3932 38,28.5C 39.3847,28.5143 40.5514,28.8476 41.5,29.5 Z"/></g>
<g><path style="opacity:1" fill="#adadad" d="M 41.5,29.5 C 54.7288,28.538 67.3955,30.7047 79.5,36C 83.3333,38.5 86.5,41.6667 89,45.5C 90.0748,49.8583 89.4081,53.8583 87,57.5C 78.571,64.761 68.7376,68.9276 57.5,70C 43.4494,71.4856 30.1161,69.3189 17.5,63.5C 19.5,63.5 21.5,63.5 23.5,63.5C 23.5,61.5 23.5,59.5 23.5,57.5C 28.4116,57.9369 33.0783,57.1036 37.5,55C 42.1186,49.3894 41.4519,44.7227 35.5,41C 30.798,40.1717 26.1313,40.3384 21.5,41.5C 20.1675,48.1638 18.8342,54.8305 17.5,61.5C 11.381,58.372 8.71433,53.372 9.5,46.5C 14.6225,41.4118 20.6225,37.4118 27.5,34.5C 28.3857,33.675 28.719,32.675 28.5,31.5C 29.9587,31.5674 31.2921,31.2341 32.5,30.5C 32.7911,31.6491 33.6244,32.3158 35,32.5C 37.6746,32.3427 39.8413,31.3427 41.5,29.5 Z"/></g>
<g><path style="opacity:1" fill="#6b6a6f" d="M 28.5,31.5 C 28.719,32.675 28.3857,33.675 27.5,34.5C 20.6225,37.4118 14.6225,41.4118 9.5,46.5C 9.62155,42.8527 11.2882,40.0194 14.5,38C 18.8085,35.0118 23.4751,32.8451 28.5,31.5 Z"/></g>
<g><path style="opacity:1" fill="#69686d" d="M 45.5,32.5 C 47.1667,32.5 48.8333,32.5 50.5,32.5C 50.7683,35.1194 50.435,37.6194 49.5,40C 52.1667,40.3333 54.8333,40.6667 57.5,41C 59.3289,41.2735 60.8289,42.1068 62,43.5C 61.8377,48.1685 61.3377,52.8352 60.5,57.5C 58.5,57.5 56.5,57.5 54.5,57.5C 54.9578,53.4616 55.6245,49.4616 56.5,45.5C 53.7531,45.1866 51.0865,45.52 48.5,46.5C 47.5102,50.1051 46.8436,53.7717 46.5,57.5C 44.5,57.5 42.5,57.5 40.5,57.5C 42.04,49.1331 43.7067,40.7998 45.5,32.5 Z"/></g>
<g><path style="opacity:1" fill="#69686d" d="M 17.5,63.5 C 17.5,62.8333 17.5,62.1667 17.5,61.5C 18.8342,54.8305 20.1675,48.1638 21.5,41.5C 26.1313,40.3384 30.798,40.1717 35.5,41C 41.4519,44.7227 42.1186,49.3894 37.5,55C 33.0783,57.1036 28.4116,57.9369 23.5,57.5C 23.5,59.5 23.5,61.5 23.5,63.5C 21.5,63.5 19.5,63.5 17.5,63.5 Z"/></g>
<g><path style="opacity:1" fill="#69686d" d="M 65.5,40.5 C 70.1785,40.3342 74.8452,40.5008 79.5,41C 85.7408,45.3977 86.0742,50.3977 80.5,56C 76.2486,57.1946 71.9152,57.6946 67.5,57.5C 67.5,59.5 67.5,61.5 67.5,63.5C 65.396,63.7989 63.396,63.4656 61.5,62.5C 63.1513,55.2275 64.4846,47.8941 65.5,40.5 Z"/></g>
<g><path style="opacity:1" fill="#aaaaaa" d="M 25.5,45.5 C 28.5,45.5 31.5,45.5 34.5,45.5C 35.3296,52.3334 32.3296,55.0001 25.5,53.5C 25.5,50.8333 25.5,48.1667 25.5,45.5 Z"/></g>
<g><path style="opacity:1" fill="#aaaaab" d="M 70.5,45.5 C 73.1667,45.5 75.8333,45.5 78.5,45.5C 79.3296,52.3334 76.3296,55.0001 69.5,53.5C 69.2786,50.7212 69.612,48.0545 70.5,45.5 Z"/></g>
<g><path style="opacity:0.746" fill="#656568" d="M 87.5,72.5 C 90.7649,72.3003 92.7649,73.8003 93.5,77C 93.3552,77.772 93.0219,78.4387 92.5,79C 88.8977,78.5439 87.231,76.3773 87.5,72.5 Z"/></g>
<g><path style="opacity:0.817" fill="#646369" d="M 82.5,75.5 C 85.5902,76.665 86.9236,78.9983 86.5,82.5C 81.8243,82.1529 80.4909,79.8195 82.5,75.5 Z"/></g>
<g><path style="opacity:0.697" fill="#616064" d="M 75.5,78.5 C 76.5,78.5 77.5,78.5 78.5,78.5C 78.9926,80.8056 79.3259,83.139 79.5,85.5C 78.1667,85.5 76.8333,85.5 75.5,85.5C 74.5615,83.0897 74.5615,80.7564 75.5,78.5 Z"/></g>
<g><path style="opacity:0.738" fill="#615f64" d="M 68.5,80.5 C 69.5,80.5 70.5,80.5 71.5,80.5C 71.9926,82.8056 72.3259,85.139 72.5,87.5C 67.8243,87.1529 66.4909,84.8195 68.5,80.5 Z"/></g>
<g><path style="opacity:0.826" fill="#636266" d="M 60.5,82.5 C 61.8333,82.5 63.1667,82.5 64.5,82.5C 64.2865,84.1439 64.6198,85.6439 65.5,87C 64.1256,89.8991 62.6256,90.0658 61,87.5C 60.5065,85.8659 60.3398,84.1992 60.5,82.5 Z"/></g>
<g><path style="opacity:0.763" fill="#646368" d="M 54.5,82.5 C 55.4959,82.4142 56.3292,82.7476 57,83.5C 57.4955,85.4727 57.6621,87.4727 57.5,89.5C 56.1667,89.5 54.8333,89.5 53.5,89.5C 53.298,87.0504 53.6314,84.717 54.5,82.5 Z"/></g>
</svg>
