<svg xmlns="http://www.w3.org/2000/svg" xmlns:xlink="http://www.w3.org/1999/xlink" viewBox="0,0,256,256" width="100px" height="100px" fill-rule="nonzero"><g fill="none" fill-rule="nonzero" stroke="none" stroke-width="1" stroke-linecap="butt" stroke-linejoin="miter" stroke-miterlimit="10" stroke-dasharray="" stroke-dashoffset="0" font-family="none" font-weight="none" font-size="none" text-anchor="none" style="mix-blend-mode: normal"><g transform="scale(5.33333,5.33333)"><path d="M42,14l-2,26l-26,2z" fill="#ffb267"></path><path d="M28,28l12,12l2,-26z" fill="#ff9e3f"></path><path d="M15.8,15.8c-8.9,8.8 -12.4,19.6 -7.8,24.2c4.6,4.6 15.4,1.1 24.2,-7.7c8.8,-8.8 12.4,-19.7 7.8,-24.3c-4.6,-4.6 -15.4,-1.1 -24.2,7.8z" fill="#ff8c1c"></path><path d="M10,17l7,-7l8,-4l6,4l-3,9l-9,8l-9,3l-4,-6z" fill="#fb9532"></path><path d="M31,10l-6,-4h11zM42,15l-11,-5l-3,9zM19,27l13.2,5.2l-4.2,-13.2zM10,30l4,12l5,-15zM6,24v11l4,-5z" fill="#ffb267"></path></g></g></svg>