<?xml version="1.0" encoding="UTF-8"?>
<!DOCTYPE svg PUBLIC "-//W3C//DTD SVG 1.1//EN" "http://www.w3.org/Graphics/SVG/1.1/DTD/svg11.dtd">
<svg xmlns="http://www.w3.org/2000/svg" version="1.1" width="100px" height="100px" style="shape-rendering:geometricPrecision; text-rendering:geometricPrecision; image-rendering:optimizeQuality; fill-rule:evenodd; clip-rule:evenodd" xmlns:xlink="http://www.w3.org/1999/xlink">
<g><path style="opacity:0.921" fill="#473e37" d="M 78.5,17.5 C 75.5,17.5 72.5,17.5 69.5,17.5C 68.8423,16.6016 68.1757,15.6016 67.5,14.5C 64.1979,16.1003 62.0313,15.1003 61,11.5C 58.0516,14.4191 55.5516,14.0858 53.5,10.5C 50.92,12.9937 48.2533,12.9937 45.5,10.5C 43.6164,14.0172 41.2831,14.3506 38.5,11.5C 37.1587,15.0074 34.8254,16.0074 31.5,14.5C 30.0499,15.8498 29.3832,17.5165 29.5,19.5C 27.8333,19.5 26.1667,19.5 24.5,19.5C 24.7678,21.099 24.4345,22.4324 23.5,23.5C 20.7131,22.5233 17.7131,22.19 14.5,22.5C 15.9899,20.7202 17.9899,20.0535 20.5,20.5C 19.6041,15.2229 21.6041,13.3895 26.5,15C 27.3802,13.6439 27.7135,12.1439 27.5,10.5C 29.5914,10.3184 31.5914,10.6518 33.5,11.5C 34.7479,7.55716 37.2479,6.55716 41,8.5C 42.497,7.52274 43.997,6.52274 45.5,5.5C 47.1043,5.93905 48.6043,6.60572 50,7.5C 53.0667,4.63335 55.7334,4.96669 58,8.5C 61.7796,6.60954 64.4463,7.60954 66,11.5C 67.6995,10.5939 69.5328,10.2606 71.5,10.5C 71.2594,14.5539 72.926,15.8872 76.5,14.5C 77.9185,15.0047 78.5852,16.0047 78.5,17.5 Z M 48.5,15.5 C 50.337,15.6395 50.6704,16.3061 49.5,17.5C 48.7025,17.0431 48.3691,16.3764 48.5,15.5 Z"/></g>
<g><path style="opacity:0.976" fill="#776c67" d="M 69.5,17.5 C 69.4701,18.4972 69.9701,19.1639 71,19.5C 72.4397,18.8524 73.9397,18.5191 75.5,18.5C 75.5,20.5 75.5,22.5 75.5,24.5C 77.1992,24.3398 78.8659,24.5065 80.5,25C 79.7476,25.6708 79.4142,26.5041 79.5,27.5C 77.7085,27.366 76.0418,27.6993 74.5,28.5C 69.8483,23.5304 64.1817,20.1971 57.5,18.5C 55.1108,20.0593 52.6108,21.3927 50,22.5C 47.1517,21.6662 44.8184,19.9995 43,17.5C 37.8196,19.1739 32.9862,21.5073 28.5,24.5C 26.8333,24.5 25.1667,24.5 23.5,24.5C 23.5,24.1667 23.5,23.8333 23.5,23.5C 24.4345,22.4324 24.7678,21.099 24.5,19.5C 26.1667,19.5 27.8333,19.5 29.5,19.5C 29.3832,17.5165 30.0499,15.8498 31.5,14.5C 34.8254,16.0074 37.1587,15.0074 38.5,11.5C 41.2831,14.3506 43.6164,14.0172 45.5,10.5C 48.2533,12.9937 50.92,12.9937 53.5,10.5C 55.5516,14.0858 58.0516,14.4191 61,11.5C 62.0313,15.1003 64.1979,16.1003 67.5,14.5C 68.1757,15.6016 68.8423,16.6016 69.5,17.5 Z M 48.5,15.5 C 48.3691,16.3764 48.7025,17.0431 49.5,17.5C 50.6704,16.3061 50.337,15.6395 48.5,15.5 Z"/></g>
<g><path style="opacity:0.866" fill="#6c4f34" d="M 14.5,22.5 C 17.7131,22.19 20.7131,22.5233 23.5,23.5C 23.5,23.8333 23.5,24.1667 23.5,24.5C 22.1667,24.5 20.8333,24.5 19.5,24.5C 20.5168,28.7888 18.8502,31.1221 14.5,31.5C 15.1272,32.4168 15.4606,33.4168 15.5,34.5C 15.5,35.8333 14.8333,36.5 13.5,36.5C 11.5,36.5 9.5,36.5 7.5,36.5C 8.4831,35.1497 9.81643,34.1497 11.5,33.5C 10.6518,31.5914 10.3184,29.5914 10.5,27.5C 14.9294,28.0826 16.2628,26.4159 14.5,22.5 Z"/></g>
<g><path style="opacity:0.835" fill="#694d34" d="M 69.5,17.5 C 72.5,17.5 75.5,17.5 78.5,17.5C 78.5,18.5 78.5,19.5 78.5,20.5C 83.6673,19.4919 85.334,21.3252 83.5,26C 84.9047,27.2692 86.5714,27.7692 88.5,27.5C 88.7394,29.4672 88.4061,31.3005 87.5,33C 89.0905,34.0458 90.5905,35.2125 92,36.5C 92.4696,37.5768 92.3029,38.5768 91.5,39.5C 90.1667,39.5 88.8333,39.5 87.5,39.5C 86.4887,37.801 85.1554,36.301 83.5,35C 84.1476,33.5603 84.4809,32.0603 84.5,30.5C 81.715,31.0838 80.0483,30.0838 79.5,27.5C 79.4142,26.5041 79.7476,25.6708 80.5,25C 78.8659,24.5065 77.1992,24.3398 75.5,24.5C 75.5,22.5 75.5,20.5 75.5,18.5C 73.9397,18.5191 72.4397,18.8524 71,19.5C 69.9701,19.1639 69.4701,18.4972 69.5,17.5 Z"/></g>
<g><path style="opacity:0.997" fill="#907a68" d="M 23.5,24.5 C 25.1667,24.5 26.8333,24.5 28.5,24.5C 27.7101,25.7942 26.7101,26.9609 25.5,28C 37.5,28.3333 49.5,28.6667 61.5,29C 65.0717,29.4318 67.405,31.2652 68.5,34.5C 50.8333,34.5 33.1667,34.5 15.5,34.5C 15.4606,33.4168 15.1272,32.4168 14.5,31.5C 18.8502,31.1221 20.5168,28.7888 19.5,24.5C 20.8333,24.5 22.1667,24.5 23.5,24.5 Z"/></g>
<g><path style="opacity:0.979" fill="#9b7f67" d="M 15.5,34.5 C 33.1667,34.5 50.8333,34.5 68.5,34.5C 70.5906,36.5419 70.9239,38.8752 69.5,41.5C 64.8333,41.5 60.1667,41.5 55.5,41.5C 55.3893,40.8826 55.056,40.3826 54.5,40C 52.5,39.8333 50.5,39.6667 48.5,39.5C 46.0478,39.5391 44.0478,40.2057 42.5,41.5C 37.5,41.5 32.5,41.5 27.5,41.5C 27.5,40.1667 27.5,38.8333 27.5,37.5C 26.1667,37.5 24.8333,37.5 23.5,37.5C 23.4326,38.9587 23.7659,40.2921 24.5,41.5C 21.9213,41.8652 19.588,41.8652 17.5,41.5C 16.1667,41.5 14.8333,41.5 13.5,41.5C 11.4892,39.4089 11.4892,37.7422 13.5,36.5C 14.8333,36.5 15.5,35.8333 15.5,34.5 Z M 17.5,41.5 C 17.5173,39.9719 18.184,39.4719 19.5,40C 18.9558,40.7172 18.2891,41.2172 17.5,41.5 Z"/></g>
<g><path style="opacity:0.933" fill="#ad8966" d="M 13.5,41.5 C 14.8333,41.5 16.1667,41.5 17.5,41.5C 19.588,41.8652 21.9213,41.8652 24.5,41.5C 22.9478,44.1119 20.6145,45.4452 17.5,45.5C 17.5,48.5 17.5,51.5 17.5,54.5C 15.5,54.5 13.5,54.5 11.5,54.5C 10.375,53.6522 10.375,52.6522 11.5,51.5C 12.8189,49.3945 12.4856,47.3945 10.5,45.5C 12.2882,44.7174 13.2882,43.3841 13.5,41.5 Z"/></g>
<g><path style="opacity:0.952" fill="#a18366" d="M 79.5,27.5 C 80.0483,30.0838 81.715,31.0838 84.5,30.5C 84.4809,32.0603 84.1476,33.5603 83.5,35C 85.1554,36.301 86.4887,37.801 87.5,39.5C 86.3054,39.8656 85.6387,40.699 85.5,42C 86.7989,43.3264 88.1322,44.6598 89.5,46C 88.9558,46.7172 88.2891,47.2172 87.5,47.5C 85.5,47.5 83.5,47.5 81.5,47.5C 79.4922,45.7324 77.3256,44.0657 75,42.5C 74.3333,41.1667 74.3333,39.8333 75,38.5C 76.2208,37.2259 77.0541,35.7259 77.5,34C 76.259,32.2691 75.259,30.4358 74.5,28.5C 76.0418,27.6993 77.7085,27.366 79.5,27.5 Z M 79.5,40.5 C 80.0768,39.2267 80.7435,39.2267 81.5,40.5C 81.0302,41.463 80.3635,41.463 79.5,40.5 Z"/></g>
<g><path style="opacity:0.935" fill="#a98767" d="M 27.5,41.5 C 32.5,41.5 37.5,41.5 42.5,41.5C 42.5,42.5 42.5,43.5 42.5,44.5C 46.1817,44.6653 49.8484,44.4986 53.5,44C 54.3805,43.2917 55.0472,42.4584 55.5,41.5C 60.1667,41.5 64.8333,41.5 69.5,41.5C 68.1604,44.8397 65.827,47.173 62.5,48.5C 50.8034,47.1856 39.1367,47.1856 27.5,48.5C 27.5,46.1667 27.5,43.8333 27.5,41.5 Z"/></g>
<g><path style="opacity:0.936" fill="#926131" d="M 7.5,36.5 C 9.5,36.5 11.5,36.5 13.5,36.5C 11.4892,37.7422 11.4892,39.4089 13.5,41.5C 13.2882,43.3841 12.2882,44.7174 10.5,45.5C 12.4856,47.3945 12.8189,49.3945 11.5,51.5C 10.3285,50.6554 8.99522,49.9887 7.5,49.5C 6.41833,48.4062 5.75166,47.0729 5.5,45.5C 6.52274,43.997 7.52274,42.497 8.5,41C 7.85242,39.5603 7.51909,38.0603 7.5,36.5 Z"/></g>
<g><path style="opacity:0.928" fill="#986430" d="M 87.5,39.5 C 88.8333,39.5 90.1667,39.5 91.5,39.5C 91.1961,40.1499 90.8627,40.8165 90.5,41.5C 94.0549,43.7291 94.3882,46.3958 91.5,49.5C 91.8627,50.1835 92.1961,50.8501 92.5,51.5C 91.0736,52.3412 89.7403,53.3412 88.5,54.5C 88.0805,52.9064 87.4138,51.4064 86.5,50C 86.7432,49.0979 87.0766,48.2646 87.5,47.5C 88.2891,47.2172 88.9558,46.7172 89.5,46C 88.1322,44.6598 86.7989,43.3264 85.5,42C 85.6387,40.699 86.3054,39.8656 87.5,39.5 Z"/></g>
<g><path style="opacity:0.888" fill="#b58c67" d="M 62.5,48.5 C 66.0334,49.0291 68.3668,51.0291 69.5,54.5C 64.3054,54.1795 59.3054,54.5128 54.5,55.5C 52.4966,53.9854 50.1632,53.3187 47.5,53.5C 45.3603,53.5561 43.6936,54.2227 42.5,55.5C 37.5,54.1667 32.5,54.1667 27.5,55.5C 27.5,53.1667 27.5,50.8333 27.5,48.5C 39.1367,47.1856 50.8034,47.1856 62.5,48.5 Z"/></g>
<g><path style="opacity:0.731" fill="#c39367" d="M 11.5,54.5 C 13.5,54.5 15.5,54.5 17.5,54.5C 18.038,56.1172 18.3713,57.7839 18.5,59.5C 21.5,59.5 24.5,59.5 27.5,59.5C 27.5,58.1667 27.5,56.8333 27.5,55.5C 32.5,54.1667 37.5,54.1667 42.5,55.5C 42.5,56.8333 42.5,58.1667 42.5,59.5C 45.3878,58.9898 47.7211,59.6565 49.5,61.5C 37.5,61.5 25.5,61.5 13.5,61.5C 12.7611,61.631 12.0944,61.4643 11.5,61C 13.9357,58.6459 13.9357,56.4792 11.5,54.5 Z"/></g>
<g><path style="opacity:0.968" fill="#c09167" d="M 81.5,47.5 C 83.5,47.5 85.5,47.5 87.5,47.5C 87.0766,48.2646 86.7432,49.0979 86.5,50C 87.4138,51.4064 88.0805,52.9064 88.5,54.5C 85.0728,56.0127 84.7394,58.0127 87.5,60.5C 87.0431,61.2975 86.3764,61.6309 85.5,61.5C 75.8333,61.5 66.1667,61.5 56.5,61.5C 55.6373,59.5786 54.9707,57.5786 54.5,55.5C 59.3054,54.5128 64.3054,54.1795 69.5,54.5C 69.8411,59.0276 72.0078,60.3609 76,58.5C 77.128,56.6547 77.628,54.6547 77.5,52.5C 78.8333,52.5 80.1667,52.5 81.5,52.5C 81.5,50.8333 81.5,49.1667 81.5,47.5 Z"/></g>
<g><path style="opacity:0.987" fill="#cd9867" d="M 56.5,61.5 C 66.1667,61.5 75.8333,61.5 85.5,61.5C 84.8592,62.4822 84.1925,63.4822 83.5,64.5C 84.2458,65.7362 84.5792,67.0695 84.5,68.5C 83.0413,68.4326 81.7079,68.7659 80.5,69.5C 78.7354,68.5386 76.7354,68.2053 74.5,68.5C 70.1539,68.6657 65.8206,68.499 61.5,68C 58.5066,66.8415 56.8399,64.6748 56.5,61.5 Z"/></g>
<g><path style="opacity:0.905" fill="#b36e2c" d="M 7.5,49.5 C 8.99522,49.9887 10.3285,50.6554 11.5,51.5C 10.375,52.6522 10.375,53.6522 11.5,54.5C 13.9357,56.4792 13.9357,58.6459 11.5,61C 12.0944,61.4643 12.7611,61.631 13.5,61.5C 15.4318,62.9764 15.7652,64.6431 14.5,66.5C 13.5,66.5 12.5,66.5 11.5,66.5C 10.6851,65.1634 9.51845,64.1634 8,63.5C 7.42425,61.6226 7.59091,59.7892 8.5,58C 7.21729,56.8643 6.21729,55.531 5.5,54C 6.41382,52.5936 7.08049,51.0936 7.5,49.5 Z"/></g>
<g><path style="opacity:0.93" fill="#d09967" d="M 13.5,61.5 C 25.5,61.5 37.5,61.5 49.5,61.5C 49.5,63.8333 49.5,66.1667 49.5,68.5C 41.1401,68.1688 32.8068,68.5021 24.5,69.5C 24.8627,70.1835 25.1961,70.8501 25.5,71.5C 23.5,71.5 21.5,71.5 19.5,71.5C 17.9742,69.6666 16.3075,68 14.5,66.5C 15.7652,64.6431 15.4318,62.9764 13.5,61.5 Z"/></g>
<g><path style="opacity:0.881" fill="#c3762c" d="M 92.5,51.5 C 93.5983,52.6009 93.765,53.9343 93,55.5C 89.9322,57.1787 89.7655,59.1787 92.5,61.5C 91.2519,63.4586 89.5852,64.9586 87.5,66C 88.4061,67.6995 88.7394,69.5328 88.5,71.5C 86.6916,71.4914 85.0249,71.9914 83.5,73C 84.056,73.3826 84.3893,73.8826 84.5,74.5C 83.1667,74.5 81.8333,74.5 80.5,74.5C 79.2801,72.7163 79.2801,71.0496 80.5,69.5C 81.7079,68.7659 83.0413,68.4326 84.5,68.5C 84.5792,67.0695 84.2458,65.7362 83.5,64.5C 84.1925,63.4822 84.8592,62.4822 85.5,61.5C 86.3764,61.6309 87.0431,61.2975 87.5,60.5C 84.7394,58.0127 85.0728,56.0127 88.5,54.5C 89.7403,53.3412 91.0736,52.3412 92.5,51.5 Z"/></g>
<g><path style="opacity:1" fill="#da812c" d="M 11.5,66.5 C 12.5,66.5 13.5,66.5 14.5,66.5C 16.3075,68 17.9742,69.6666 19.5,71.5C 19.5,72.5 19.5,73.5 19.5,74.5C 23.7589,74.1019 25.5922,76.1019 25,80.5C 27.8108,78.8203 29.6441,79.4869 30.5,82.5C 27.1667,82.5 23.8333,82.5 20.5,82.5C 20.5,81.1667 20.5,79.8333 20.5,78.5C 18.8008,78.6602 17.1341,78.4935 15.5,78C 15.2533,76.1867 14.92,74.3533 14.5,72.5C 13.2638,71.7542 11.9305,71.4208 10.5,71.5C 10.2155,69.5853 10.5489,67.9187 11.5,66.5 Z"/></g>
<g><path style="opacity:0.968" fill="#e8a665" d="M 74.5,68.5 C 76.7354,68.2053 78.7354,68.5386 80.5,69.5C 79.2801,71.0496 79.2801,72.7163 80.5,74.5C 79.0813,75.4511 77.4147,75.7845 75.5,75.5C 75.5,77.1667 75.5,78.8333 75.5,80.5C 71.542,79.5723 68.8754,80.9056 67.5,84.5C 64.2488,83.0408 61.9155,84.0408 60.5,87.5C 59.452,86.6171 58.2853,85.9504 57,85.5C 55.8319,86.5089 54.6652,87.5089 53.5,88.5C 50.658,85.7167 48.158,86.0501 46,89.5C 44.3652,85.2296 41.8652,84.5629 38.5,87.5C 37.1587,83.9926 34.8254,82.9926 31.5,84.5C 30.7025,84.0431 30.3691,83.3764 30.5,82.5C 29.6441,79.4869 27.8108,78.8203 25,80.5C 25.5922,76.1019 23.7589,74.1019 19.5,74.5C 19.5,73.5 19.5,72.5 19.5,71.5C 21.5,71.5 23.5,71.5 25.5,71.5C 29.1295,72.1002 32.7961,72.7668 36.5,73.5C 36.8444,76.0361 37.8444,78.2028 39.5,80C 46.5658,82.1138 53.5658,81.9472 60.5,79.5C 61.2922,77.5352 61.9588,75.5352 62.5,73.5C 65.7848,72.6764 69.1182,72.1764 72.5,72C 73.8228,71.1841 74.4894,70.0174 74.5,68.5 Z M 66.5,76.5 C 67.7733,77.0768 67.7733,77.7435 66.5,78.5C 65.537,78.0302 65.537,77.3635 66.5,76.5 Z M 31.5,76.5 C 32.2891,76.7828 32.9558,77.2828 33.5,78C 32.184,78.5281 31.5173,78.0281 31.5,76.5 Z"/></g>
<g><path style="opacity:0.894" fill="#f28c26" d="M 80.5,74.5 C 81.8333,74.5 83.1667,74.5 84.5,74.5C 84.2407,78.0681 82.2407,79.4015 78.5,78.5C 79.5081,83.6673 77.6748,85.334 73,83.5C 71.9914,85.0249 71.4914,86.6916 71.5,88.5C 69.5328,88.7394 67.6995,88.4061 66,87.5C 64.9586,89.5852 63.4586,91.2519 61.5,92.5C 60.452,91.6171 59.2853,90.9504 58,90.5C 55.5405,93.9897 52.7071,94.323 49.5,91.5C 46.3958,94.3882 43.7291,94.0549 41.5,90.5C 37.4904,93.3835 34.657,92.3835 33,87.5C 31.3005,88.4061 29.4672,88.7394 27.5,88.5C 28.2232,84.5485 26.8898,83.2152 23.5,84.5C 21.9623,84.5466 20.9623,83.8799 20.5,82.5C 23.8333,82.5 27.1667,82.5 30.5,82.5C 30.3691,83.3764 30.7025,84.0431 31.5,84.5C 34.8254,82.9926 37.1587,83.9926 38.5,87.5C 41.8652,84.5629 44.3652,85.2296 46,89.5C 48.158,86.0501 50.658,85.7167 53.5,88.5C 54.6652,87.5089 55.8319,86.5089 57,85.5C 58.2853,85.9504 59.452,86.6171 60.5,87.5C 61.9155,84.0408 64.2488,83.0408 67.5,84.5C 68.8754,80.9056 71.542,79.5723 75.5,80.5C 75.5,78.8333 75.5,77.1667 75.5,75.5C 77.4147,75.7845 79.0813,75.4511 80.5,74.5 Z"/></g>
</svg>
