<?xml version="1.0" encoding="UTF-8"?>
<!DOCTYPE svg PUBLIC "-//W3C//DTD SVG 1.1//EN" "http://www.w3.org/Graphics/SVG/1.1/DTD/svg11.dtd">
<svg xmlns="http://www.w3.org/2000/svg" version="1.1" width="100px" height="100px" style="shape-rendering:geometricPrecision; text-rendering:geometricPrecision; image-rendering:optimizeQuality; fill-rule:evenodd; clip-rule:evenodd" xmlns:xlink="http://www.w3.org/1999/xlink">
<g><path style="opacity:0.972" fill="#fe8209" d="M 79.5,-0.5 C 79.8333,-0.5 80.1667,-0.5 80.5,-0.5C 80.6664,7.83999 80.4997,16.1733 80,24.5C 79.2828,25.0442 78.7828,25.7109 78.5,26.5C 75.779,26.9628 73.1123,27.6295 70.5,28.5C 68.8476,21.3899 67.8476,14.0566 67.5,6.5C 70.7735,5.12003 74.1068,3.62003 77.5,2C 78.3805,1.2917 79.0472,0.458367 79.5,-0.5 Z"/></g>
<g><path style="opacity:0.99" fill="#fc891a" d="M 67.5,6.5 C 67.8476,14.0566 68.8476,21.3899 70.5,28.5C 68.4006,29.6118 66.0673,30.2785 63.5,30.5C 62.8333,30.5 62.1667,30.5 61.5,30.5C 60.508,23.0182 60.1746,15.3516 60.5,7.5C 62.8056,7.00745 65.139,6.67412 67.5,6.5 Z"/></g>
<g><path style="opacity:0.99" fill="#fc9128" d="M 60.5,7.5 C 60.1746,15.3516 60.508,23.0182 61.5,30.5C 58.0264,31.5249 54.3597,32.1916 50.5,32.5C 49.1667,25.1667 47.8333,17.8333 46.5,10.5C 51.0079,9.29895 55.6745,8.29895 60.5,7.5 Z"/></g>
<g><path style="opacity:0.993" fill="#fb9837" d="M 40.5,10.5 C 42.5,10.5 44.5,10.5 46.5,10.5C 47.8333,17.8333 49.1667,25.1667 50.5,32.5C 49.791,33.404 48.791,33.7373 47.5,33.5C 45.5,33.5 43.5,33.5 41.5,33.5C 40.508,26.0182 40.1746,18.3516 40.5,10.5 Z"/></g>
<g><path style="opacity:0.979" fill="#fb9f44" d="M 40.5,10.5 C 40.1746,18.3516 40.508,26.0182 41.5,33.5C 39.7354,34.4614 37.7354,34.7947 35.5,34.5C 34.5,34.5 33.5,34.5 32.5,34.5C 32.5,27.1667 32.5,19.8333 32.5,12.5C 35.0529,11.7451 37.7196,11.0784 40.5,10.5 Z"/></g>
<g><path style="opacity:0.988" fill="#fba34d" d="M 27.5,12.5 C 29.1667,12.5 30.8333,12.5 32.5,12.5C 32.5,19.8333 32.5,27.1667 32.5,34.5C 33.5,34.5 34.5,34.5 35.5,34.5C 34.0813,35.4511 32.4147,35.7845 30.5,35.5C 29.5,35.5 28.5,35.5 27.5,35.5C 27.5,27.8333 27.5,20.1667 27.5,12.5 Z"/></g>
<g><path style="opacity:0.984" fill="#f8a859" d="M 27.5,12.5 C 27.5,20.1667 27.5,27.8333 27.5,35.5C 28.5,35.5 29.5,35.5 30.5,35.5C 26.6423,36.2937 22.6423,36.9603 18.5,37.5C 18.3336,29.8261 18.5003,22.1594 19,14.5C 21.7383,13.5183 24.5716,12.8516 27.5,12.5 Z"/></g>
<g><path style="opacity:1" fill="#333030" d="M 78.5,26.5 C 79.9418,27.8195 80.6085,29.4862 80.5,31.5C 77.2257,33.9695 73.559,35.6362 69.5,36.5C 67.5648,37.1495 65.5648,37.4828 63.5,37.5C 62.2437,35.2743 62.2437,32.941 63.5,30.5C 66.0673,30.2785 68.4006,29.6118 70.5,28.5C 73.1123,27.6295 75.779,26.9628 78.5,26.5 Z"/></g>
<g><path style="opacity:1" fill="#423f40" d="M 61.5,30.5 C 62.1667,30.5 62.8333,30.5 63.5,30.5C 62.2437,32.941 62.2437,35.2743 63.5,37.5C 63.5,38.1667 63.1667,38.5 62.5,38.5C 58.4543,38.9521 54.4543,39.6187 50.5,40.5C 49.1667,40.5 47.8333,40.5 46.5,40.5C 46.298,38.0504 46.6314,35.717 47.5,33.5C 48.791,33.7373 49.791,33.404 50.5,32.5C 54.3597,32.1916 58.0264,31.5249 61.5,30.5 Z"/></g>
<g><path style="opacity:1" fill="#fc810a" d="M 80.5,31.5 C 80.6664,39.5069 80.4997,47.5069 80,55.5C 79.2828,56.0442 78.7828,56.7109 78.5,57.5C 75.1667,58.1667 71.8333,58.8333 68.5,59.5C 68.201,51.747 68.5343,44.0804 69.5,36.5C 73.559,35.6362 77.2257,33.9695 80.5,31.5 Z"/></g>
<g><path style="opacity:0.951" fill="#545153" d="M 41.5,33.5 C 43.5,33.5 45.5,33.5 47.5,33.5C 46.6314,35.717 46.298,38.0504 46.5,40.5C 46.1583,41.3382 45.4916,41.6716 44.5,41.5C 42.1667,41.5 39.8333,41.5 37.5,41.5C 31.4868,40.8315 25.4868,39.9982 19.5,39C 18.944,38.6174 18.6107,38.1174 18.5,37.5C 22.6423,36.9603 26.6423,36.2937 30.5,35.5C 32.4147,35.7845 34.0813,35.4511 35.5,34.5C 37.7354,34.7947 39.7354,34.4614 41.5,33.5 Z"/></g>
<g><path style="opacity:1" fill="#fa891a" d="M 69.5,36.5 C 68.5343,44.0804 68.201,51.747 68.5,59.5C 66.1617,61.0395 63.4951,61.7062 60.5,61.5C 59.9194,53.5585 60.5861,45.8919 62.5,38.5C 63.1667,38.5 63.5,38.1667 63.5,37.5C 65.5648,37.4828 67.5648,37.1495 69.5,36.5 Z"/></g>
<g><path style="opacity:1" fill="#fa9028" d="M 62.5,38.5 C 60.5861,45.8919 59.9194,53.5585 60.5,61.5C 58.1667,62.1667 55.8333,62.8333 53.5,63.5C 51.8333,63.5 50.1667,63.5 48.5,63.5C 47.9194,55.5585 48.5861,47.8919 50.5,40.5C 54.4543,39.6187 58.4543,38.9521 62.5,38.5 Z"/></g>
<g><path style="opacity:1" fill="#fa9737" d="M 46.5,40.5 C 47.8333,40.5 49.1667,40.5 50.5,40.5C 48.5861,47.8919 47.9194,55.5585 48.5,63.5C 46.3926,64.4682 44.0593,64.8016 41.5,64.5C 40.5084,57.3524 40.175,50.0191 40.5,42.5C 42.099,42.7678 43.4324,42.4345 44.5,41.5C 45.4916,41.6716 46.1583,41.3382 46.5,40.5 Z"/></g>
<g><path style="opacity:0.976" fill="#fba54f" d="M 32.5,42.5 C 32.5,50.1667 32.5,57.8333 32.5,65.5C 29.6553,66.3438 26.6553,67.0104 23.5,67.5C 23.799,59.747 23.4657,52.0804 22.5,44.5C 25.7911,43.7428 29.1244,43.0761 32.5,42.5 Z"/></g>
<g><path style="opacity:0.98" fill="#fb9f44" d="M 37.5,41.5 C 39.8333,41.5 42.1667,41.5 44.5,41.5C 43.4324,42.4345 42.099,42.7678 40.5,42.5C 40.175,50.0191 40.5084,57.3524 41.5,64.5C 38.7131,65.4767 35.7131,65.81 32.5,65.5C 32.5,57.8333 32.5,50.1667 32.5,42.5C 34.4147,42.7845 36.0813,42.4511 37.5,41.5 Z"/></g>
<g><path style="opacity:0.986" fill="#f9a95b" d="M 22.5,44.5 C 23.4657,52.0804 23.799,59.747 23.5,67.5C 21.7839,67.6287 20.1172,67.962 18.5,68.5C 18.5,60.5 18.5,52.5 18.5,44.5C 19.8333,44.5 21.1667,44.5 22.5,44.5 Z"/></g>
<g><path style="opacity:1" fill="#3a3635" d="M 78.5,57.5 C 80.2132,58.6354 80.8799,60.302 80.5,62.5C 78.1123,64.3605 75.4456,65.6939 72.5,66.5C 70.5,67.1667 68.5,67.8333 66.5,68.5C 62.8026,69.0078 59.1359,69.6745 55.5,70.5C 56.0102,67.6122 55.3435,65.2789 53.5,63.5C 55.8333,62.8333 58.1667,62.1667 60.5,61.5C 63.4951,61.7062 66.1617,61.0395 68.5,59.5C 71.8333,58.8333 75.1667,58.1667 78.5,57.5 Z"/></g>
<g><path style="opacity:0.928" fill="#514f50" d="M 48.5,63.5 C 50.1667,63.5 51.8333,63.5 53.5,63.5C 55.3435,65.2789 56.0102,67.6122 55.5,70.5C 50.5,71.1667 45.5,71.8333 40.5,72.5C 39.1667,72.5 37.8333,72.5 36.5,72.5C 30.2441,71.7968 24.2441,70.4635 18.5,68.5C 20.1172,67.962 21.7839,67.6287 23.5,67.5C 26.6553,67.0104 29.6553,66.3438 32.5,65.5C 35.7131,65.81 38.7131,65.4767 41.5,64.5C 44.0593,64.8016 46.3926,64.4682 48.5,63.5 Z"/></g>
<g><path style="opacity:0.98" fill="#fc8008" d="M 80.5,62.5 C 80.6664,70.5069 80.4997,78.5069 80,86.5C 78.0065,87.914 75.8398,88.914 73.5,89.5C 72.508,82.0182 72.1746,74.3516 72.5,66.5C 75.4456,65.6939 78.1123,64.3605 80.5,62.5 Z"/></g>
<g><path style="opacity:0.966" fill="#fd8714" d="M 72.5,66.5 C 72.1746,74.3516 72.508,82.0182 73.5,89.5C 70.7458,90.9459 67.7458,91.9459 64.5,92.5C 63.9154,84.2279 64.5821,76.2279 66.5,68.5C 68.5,67.8333 70.5,67.1667 72.5,66.5 Z"/></g>
<g><path style="opacity:0.977" fill="#fc8e22" d="M 66.5,68.5 C 64.5821,76.2279 63.9154,84.2279 64.5,92.5C 60.5236,93.2952 56.5236,93.9619 52.5,94.5C 52.5,86.8333 52.5,79.1667 52.5,71.5C 53.791,71.7373 54.791,71.404 55.5,70.5C 59.1359,69.6745 62.8026,69.0078 66.5,68.5 Z"/></g>
<g><path style="opacity:0.992" fill="#fa9635" d="M 55.5,70.5 C 54.791,71.404 53.791,71.7373 52.5,71.5C 52.5,79.1667 52.5,86.8333 52.5,94.5C 48.5457,95.3813 44.5457,96.0479 40.5,96.5C 40.5,88.5 40.5,80.5 40.5,72.5C 45.5,71.8333 50.5,71.1667 55.5,70.5 Z"/></g>
<g><path style="opacity:0.988" fill="#fba54f" d="M 32.5,73.5 C 32.5,81.5 32.5,89.5 32.5,97.5C 29.5448,98.1587 26.5448,98.4921 23.5,98.5C 23.5,90.5 23.5,82.5 23.5,74.5C 26.5176,74.2962 29.5176,73.9629 32.5,73.5 Z"/></g>
<g><path style="opacity:0.97" fill="#fc9f45" d="M 36.5,72.5 C 37.8333,72.5 39.1667,72.5 40.5,72.5C 40.5,80.5 40.5,88.5 40.5,96.5C 37.8728,97.0916 35.2062,97.4249 32.5,97.5C 32.5,89.5 32.5,81.5 32.5,73.5C 34.099,73.7678 35.4324,73.4345 36.5,72.5 Z"/></g>
<g><path style="opacity:0.979" fill="#fbaa5b" d="M 23.5,74.5 C 23.5,82.5 23.5,90.5 23.5,98.5C 22.8333,98.5 22.5,98.8333 22.5,99.5C 21.1667,99.5 19.8333,99.5 18.5,99.5C 18.5,91.5 18.5,83.5 18.5,75.5C 20.2161,75.3713 21.8828,75.038 23.5,74.5 Z"/></g>
</svg>
